<svg display="block" width="100%" height="100%" viewBox="0 0 109 30" fill="none"
    xmlns="http://www.w3.org/2000/svg">
    <path d="M24.674 8.89227C24.6723 8.16038 24.4785 7.44176 24.1121 6.80823C23.7456 6.17471 23.2192 5.64846 22.5857 5.2821L14.4244 0.558191C13.79 0.192505 13.0707 0 12.3385 0C11.6063 0 10.8869 0.192505 10.2526 0.558191L2.09131 5.2821C1.51969 5.61099 1.03418 6.07074 0.674616 6.62358C0.315052 7.17642 0.0916736 7.8066 0.0228065 8.46247C-0.0460606 9.11835 0.0415701 9.78125 0.278461 10.3967C0.515352 11.0122 0.894775 11.5627 1.38561 12.0031C0.894775 12.4436 0.515352 12.9941 0.278461 13.6096C0.0415701 14.2251 -0.0460606 14.8879 0.0228065 15.5438C0.0916736 16.1997 0.315052 16.8299 0.674616 17.3828C1.03418 17.9356 1.51969 18.3953 2.09131 18.7242L10.2526 23.4433C10.8872 23.8081 11.6065 24 12.3385 24C13.0705 24 13.7897 23.8081 14.4244 23.4433L22.5857 18.7242C23.1578 18.3956 23.6437 17.9359 24.0035 17.3828C24.3632 16.8297 24.5865 16.1991 24.6549 15.5429C24.7234 14.8867 24.635 14.2236 24.3971 13.6082C24.1592 12.9928 23.7786 12.4427 23.2866 12.0031C23.7227 11.6106 24.0716 11.1309 24.3106 10.595C24.5496 10.0591 24.6734 9.47903 24.674 8.89227V8.89227Z" fill="url(#paint0_linear_208_170)"></path>
    <path d="M3.22757 13.2992C3.22675 13.3629 3.2433 13.4256 3.27545 13.4806C3.30759 13.5355 3.35411 13.5807 3.41 13.6112L11.3888 18.22C11.6711 18.3835 11.9915 18.4697 12.3178 18.4697C12.644 18.4697 12.9644 18.3835 13.2467 18.22L21.2255 13.6112C21.2804 13.5797 21.3259 13.5342 21.3576 13.4795C21.3893 13.4247 21.406 13.3625 21.406 13.2992C21.406 13.236 21.3893 13.1738 21.3576 13.119C21.3259 13.0642 21.2804 13.0188 21.2255 12.9872L20.4382 12.5071L13.8756 16.2949C13.402 16.5684 12.8647 16.7123 12.3178 16.7123C11.7708 16.7123 11.2336 16.5684 10.7599 16.2949L4.19733 12.5071L3.41 12.9872C3.35411 13.0177 3.30759 13.0629 3.27545 13.1179C3.2433 13.1729 3.22675 13.2356 3.22757 13.2992Z" fill="white"></path>
    <path d="M23.6419 8.8926C23.6416 8.34549 23.4973 7.80809 23.2234 7.33447C22.9495 6.86085 22.5557 6.46772 22.0817 6.19459L13.9204 1.47068C13.4468 1.19722 12.9095 1.05325 12.3626 1.05325C11.8157 1.05325 11.2784 1.19722 10.8047 1.47068L2.64349 6.19459C2.16944 6.46772 1.77565 6.86085 1.50176 7.33447C1.22787 7.80809 1.08354 8.34549 1.08325 8.8926V8.8926C1.08367 9.44033 1.22802 9.97836 1.50185 10.4527C1.77569 10.9271 2.16939 11.3211 2.64349 11.5954L3.3396 11.9987L2.64349 12.402C2.16944 12.6751 1.77565 13.0682 1.50176 13.5419C1.22787 14.0155 1.08354 14.5529 1.08325 15.1V15.1C1.08354 15.6471 1.22787 16.1844 1.50176 16.6581C1.77565 17.1317 2.16944 17.5249 2.64349 17.798L10.8047 22.5219C11.2784 22.7954 11.8157 22.9393 12.3626 22.9393C12.9095 22.9393 13.4468 22.7954 13.9204 22.5219L22.0817 17.798C22.5586 17.5232 22.9541 17.1271 23.2282 16.6498C23.5023 16.1725 23.645 15.6311 23.6419 15.0808V15.0808C23.6416 14.5337 23.4973 13.9962 23.2234 13.5226C22.9495 13.049 22.5557 12.6559 22.0817 12.3827L21.3856 11.9795L22.0817 11.5762C22.553 11.3036 22.9449 10.9125 23.2185 10.4418C23.4922 9.97112 23.6381 9.43707 23.6419 8.8926V8.8926ZM10.7855 16.3193C11.2592 16.5928 11.7965 16.7368 12.3434 16.7368C12.8903 16.7368 13.4276 16.5928 13.9012 16.3193L20.4638 12.5315L21.2512 13.0116C21.306 13.0432 21.3515 13.0887 21.3832 13.1435C21.4149 13.1983 21.4316 13.2604 21.4316 13.3237C21.4316 13.387 21.4149 13.4492 21.3832 13.5039C21.3515 13.5587 21.306 13.6042 21.2512 13.6357L13.2723 18.2444C12.9901 18.408 12.6696 18.4941 12.3434 18.4941C12.0172 18.4941 11.6967 18.408 11.4144 18.2444L3.4356 13.6357C3.38075 13.6042 3.33521 13.5587 3.30353 13.5039C3.27186 13.4492 3.25519 13.387 3.25519 13.3237C3.25519 13.2604 3.27186 13.1983 3.30353 13.1435C3.33521 13.0887 3.38075 13.0432 3.4356 13.0116L4.22292 12.5315L10.7855 16.3193ZM13.2723 11.9987C12.9901 12.1622 12.6696 12.2483 12.3434 12.2483C12.0172 12.2483 11.6967 12.1622 11.4144 11.9987L3.4356 7.38997C3.37961 7.35874 3.33298 7.31316 3.30052 7.25788C3.26805 7.2026 3.25094 7.13961 3.25094 7.07551C3.25094 7.0114 3.26805 6.94847 3.30052 6.89319C3.33298 6.83791 3.37961 6.79233 3.4356 6.7611L10.9248 2.44044C11.3562 2.19189 11.8454 2.06104 12.3434 2.06104C12.8413 2.06104 13.3305 2.19189 13.762 2.44044L21.2512 6.7611C21.3071 6.79233 21.3538 6.83791 21.3862 6.89319C21.4187 6.94847 21.4358 7.0114 21.4358 7.07551C21.4358 7.13961 21.4187 7.2026 21.3862 7.25788C21.3538 7.31316 21.3071 7.35874 21.2512 7.38997L13.2723 11.9987Z" fill="#222325"></path>
    <path d="M21.2414 6.77992L13.7523 2.45925C13.3218 2.20786 12.8322 2.0754 12.3337 2.0754C11.8351 2.0754 11.3455 2.20786 10.915 2.45925L3.4259 6.77992C3.36963 6.81123 3.32292 6.85725 3.29079 6.91306C3.25866 6.96887 3.2423 7.03239 3.24347 7.09678C3.24265 7.16046 3.2592 7.22318 3.29134 7.27816C3.32349 7.33314 3.37001 7.37831 3.4259 7.40884L11.4047 12.0175C11.687 12.1811 12.0074 12.2672 12.3337 12.2672C12.6599 12.2672 12.9803 12.1811 13.2626 12.0175L21.2414 7.39923C21.2973 7.3687 21.3438 7.32352 21.376 7.26855C21.4081 7.21357 21.4247 7.15085 21.4239 7.08717C21.4233 7.02441 21.4061 6.96293 21.3741 6.90896C21.342 6.85499 21.2963 6.81045 21.2414 6.77992V6.77992Z" fill="white"></path>
    <path d="M15.2399 6.30898L14.5006 5.88171C14.4127 5.83207 14.3134 5.80599 14.2125 5.80599C14.1116 5.80599 14.0124 5.83207 13.9245 5.88171L12.6091 6.64507C12.5203 6.69468 12.4203 6.72072 12.3186 6.72072C12.2169 6.72072 12.1169 6.69468 12.0282 6.64507L10.7128 5.88171C10.6249 5.83207 10.5257 5.80599 10.4247 5.80599C10.3238 5.80599 10.2246 5.83207 10.1367 5.88171L9.39739 6.30898C9.3085 6.35916 9.23454 6.43204 9.18308 6.52019C9.13161 6.60833 9.10449 6.70861 9.10449 6.81068C9.10449 6.91275 9.13161 7.01297 9.18308 7.10112C9.23454 7.18926 9.3085 7.26214 9.39739 7.31232L12.0282 8.83417C12.1169 8.88379 12.2169 8.90983 12.3186 8.90983C12.4203 8.90983 12.5203 8.88379 12.6091 8.83417L15.2399 7.31232C15.3288 7.26214 15.4027 7.18926 15.4542 7.10112C15.5057 7.01297 15.5328 6.91275 15.5328 6.81068C15.5328 6.70861 15.5057 6.60833 15.4542 6.52019C15.4027 6.43204 15.3288 6.35916 15.2399 6.30898V6.30898Z" fill="#222325"></path>
    <path d="M68.695 8.80283C68.1224 8.85471 67.5661 9.02144 67.0594 9.29304C66.5527 9.56465 66.1059 9.93556 65.7457 10.3837C65.412 9.89164 64.9646 9.48732 64.4414 9.20495C63.9183 8.92257 63.3347 8.77047 62.7403 8.76154C62.1464 8.73624 61.5535 8.82991 60.9964 9.03707C60.4392 9.24422 59.9291 9.56067 59.4961 9.9678C59.3574 9.08301 59.3132 9.03876 58.4225 9.04466C57.9388 9.04466 57.4522 9.04466 56.9685 9.04466C56.4848 9.04466 56.3462 9.20098 56.3462 9.63453C56.3462 12.7048 56.3462 15.778 56.3462 18.8482C56.3462 19.2611 56.5438 19.4381 56.9361 19.4174C57.5525 19.4174 58.1689 19.4174 58.7853 19.4174C59.3339 19.4174 59.4341 19.3112 59.4371 18.7774C59.4371 17.8218 59.4371 16.8692 59.4371 15.9136C59.4371 15.076 59.4371 14.2355 59.5197 13.4067C59.5419 13.0202 59.6865 12.6507 59.9324 12.3517C60.1784 12.0527 60.5131 11.8396 60.8882 11.7433C62.2743 11.3333 63.4599 12.2034 63.4776 13.6515C63.4953 15.2677 63.4776 16.8958 63.4776 18.5031C63.4776 19.3467 63.5455 19.4145 64.3624 19.4174H65.9492C66.5007 19.4174 66.5951 19.326 66.5951 18.7774C66.5951 17.4119 66.5951 16.0434 66.5951 14.6779C66.5891 14.2374 66.6127 13.7969 66.6659 13.3595C66.7211 12.8787 66.9548 12.4361 67.3207 12.1193C67.6866 11.8026 68.1581 11.6347 68.6419 11.6489C69.6801 11.6489 70.3643 12.2093 70.5649 13.274C70.6156 13.5661 70.6393 13.8623 70.6356 14.1588C70.6356 15.7013 70.6356 17.2467 70.6356 18.7892C70.6356 19.3054 70.7713 19.4292 71.2963 19.4292H73.1455C73.6351 19.4292 73.7796 19.2818 73.7826 18.804C73.7826 16.8633 73.8475 14.9227 73.7649 12.985C73.6646 9.75843 71.1636 8.49021 68.695 8.80283Z" fill="black"></path>
    <path d="M102.936 9.03792C102.479 9.03792 102.025 9.03792 101.567 9.03792C100.647 9.03792 100.633 9.03789 100.444 9.8637C100.193 9.6464 99.926 9.44917 99.6445 9.27384C98.0253 8.41264 96.4179 8.59551 94.9256 9.5098C92.9348 10.7249 92.2093 12.6272 92.4275 14.8716C92.634 16.9509 93.6662 18.5436 95.6718 19.3399C97.3647 20.0212 99.0015 19.9474 100.42 18.6202L100.485 18.6379C100.523 19.0066 100.559 19.2072 100.68 19.3104C100.801 19.4136 101.004 19.4284 101.385 19.4284C101.913 19.4284 102.443 19.4284 102.971 19.4284C103.499 19.4284 103.632 19.2868 103.632 18.7795C103.632 15.7653 103.632 12.7521 103.632 9.73986C103.623 9.21783 103.452 9.04676 102.936 9.03792ZM98.0017 16.8329C97.3356 16.7973 96.7088 16.5067 96.2514 16.0212C95.7939 15.5357 95.5409 14.8928 95.5449 14.2258C95.5715 12.8396 96.707 11.6628 98.0106 11.6657C98.6744 11.6975 99.3006 11.9835 99.7592 12.4646C100.218 12.9456 100.474 13.5847 100.474 14.2493C100.474 14.914 100.218 15.5531 99.7592 16.0341C99.3006 16.5152 98.6744 16.8012 98.0106 16.8329H98.0017Z" fill="black"></path>
    <path d="M91.1747 12.7837C91.1666 12.2299 91.0415 11.6839 90.8077 11.1818C90.5739 10.6796 90.2366 10.2325 89.818 9.86981C89.0011 9.18074 87.9783 8.78274 86.9105 8.73843C85.8427 8.69412 84.7905 9.00601 83.9193 9.62503C83.7837 9.7253 83.6569 9.83442 83.5065 9.9524C83.3236 9.05285 83.3236 9.05286 82.3916 9.04107C81.9816 9.04107 81.5687 9.04107 81.1588 9.04107C80.4274 9.04107 80.3389 9.12659 80.3389 9.84623C80.3389 12.2057 80.3389 14.5563 80.3389 16.898C80.3389 17.5626 80.3389 18.2243 80.3389 18.8829C80.3389 19.2369 80.4952 19.4256 80.8756 19.4197C81.551 19.4197 82.2264 19.4197 82.9048 19.4197C83.2587 19.4197 83.4475 19.2604 83.4416 18.8859C83.4416 18.24 83.4416 17.5911 83.4416 16.9452C83.4593 15.8304 83.4416 14.7126 83.5241 13.6007C83.6067 12.4888 84.4414 11.781 85.5415 11.663C86.6416 11.545 87.606 12.0907 87.9009 13.0846C88.0077 13.4795 88.0574 13.8877 88.0484 14.2967C88.0661 15.7714 88.0484 17.2667 88.0484 18.7502C88.0484 19.2368 88.1959 19.4168 88.6058 19.4227C89.296 19.4227 89.9861 19.4227 90.6703 19.4227C91.0331 19.4227 91.1924 19.2398 91.1924 18.8711C91.2042 16.8391 91.2248 14.8099 91.1747 12.7837Z" fill="black"></path>
    <path d="M53.9376 9.05032C53.3949 9.03262 52.8493 9.05032 52.3066 9.05032C51.587 9.05032 51.4484 9.17126 51.4484 9.87909C51.4484 11.5956 51.4484 13.315 51.4218 15.0345C51.4054 15.4356 51.2932 15.827 51.0944 16.1759C50.5901 17.043 49.7289 17.1256 48.85 16.9958C48.4967 16.9489 48.168 16.7888 47.9133 16.5394C47.6586 16.2901 47.4916 15.9648 47.4373 15.6126C47.3613 15.2687 47.3218 14.9177 47.3193 14.5656C47.3193 12.9346 47.3046 11.3036 47.3193 9.67262C47.3193 9.23907 47.1276 9.04444 46.7295 9.03854C46.0845 9.03854 45.4386 9.03854 44.7918 9.03854C44.7071 9.02797 44.6212 9.03718 44.5407 9.06544C44.4602 9.0937 44.3874 9.14021 44.3279 9.20138C44.2685 9.26255 44.224 9.33668 44.198 9.41794C44.1721 9.49919 44.1653 9.58536 44.1783 9.66967C44.1783 10.4778 44.1783 11.2859 44.1783 12.094C44.196 13.4596 44.1488 14.831 44.2786 16.1847C44.426 17.7095 45.2401 18.8715 46.7206 19.4054C48.2012 19.9392 49.6699 19.9274 50.9676 18.8951C51.1121 18.7801 51.2449 18.6504 51.413 18.4999C51.4328 18.5696 51.4476 18.6405 51.4572 18.7123C51.5074 19.3434 51.584 19.4142 52.2093 19.4113C52.8345 19.4083 53.389 19.4113 53.9789 19.4113C54.4803 19.4113 54.6041 19.2815 54.6041 18.789V9.71096C54.5835 9.20368 54.4596 9.06801 53.9376 9.05032Z" fill="black"></path>
    <path d="M42.6114 16.4291C42.0216 16.4291 41.4052 16.4291 40.8035 16.4291H35.8634V5.30722C35.8634 4.68196 35.7071 4.52859 35.0789 4.52564H33.4509C32.6958 4.52564 32.6162 4.59939 32.6162 5.35442V15.0872C32.6162 16.3377 32.6162 17.5852 32.6162 18.8328C32.6162 19.2044 32.7548 19.4227 33.1589 19.4227C36.3147 19.4227 39.4724 19.4227 42.6321 19.4227C42.7149 19.4357 42.7997 19.4299 42.88 19.4057C42.9602 19.3815 43.034 19.3395 43.0958 19.2828C43.1576 19.2261 43.2059 19.1562 43.2369 19.0783C43.2679 19.0004 43.281 18.9164 43.275 18.8328C43.2898 18.2429 43.2927 17.6531 43.275 17.0632C43.2603 16.6031 43.0686 16.432 42.6114 16.4291Z" fill="black"></path>
    <path d="M77.909 9.05054C77.3663 9.05054 76.8237 9.05054 76.281 9.05054C75.5673 9.05054 75.4434 9.17442 75.4434 9.90585V18.5828C75.4434 18.686 75.4434 18.7892 75.4434 18.8777C75.4386 18.9543 75.451 19.0311 75.4797 19.1023C75.5083 19.1736 75.5525 19.2375 75.6091 19.2895C75.6656 19.3415 75.733 19.3802 75.8064 19.4029C75.8798 19.4255 75.9573 19.4315 76.0332 19.4204C76.6496 19.4204 77.2661 19.4204 77.8825 19.4204C78.431 19.4204 78.5461 19.3024 78.5461 18.742C78.5461 17.2437 78.5461 15.7455 78.5461 14.2472C78.5461 12.749 78.5461 11.2242 78.5461 9.71118C78.5608 9.20095 78.4281 9.05939 77.909 9.05054Z" fill="black"></path>
    <path d="M107.83 9.04642C107.241 9.02872 106.627 9.02577 106.025 9.04642C105.524 9.04642 105.371 9.21749 105.365 9.71887C105.365 10.3795 105.365 11.0402 105.365 11.7008C105.365 14.0347 105.365 16.3686 105.365 18.7025C105.365 19.2923 105.497 19.4251 106.09 19.428H107.807C108.364 19.428 108.473 19.3101 108.473 18.7526C108.473 17.2544 108.473 15.7571 108.473 14.2608C108.473 12.7478 108.473 11.2348 108.473 9.72182C108.47 9.19979 108.347 9.05822 107.83 9.04642Z" fill="black"></path>
    <path d="M77.048 4.23682C76.7986 4.23759 76.5518 4.28747 76.3216 4.38364C76.0915 4.4798 75.8825 4.62038 75.7067 4.7973C75.5309 4.97422 75.3916 5.18404 75.2969 5.41478C75.2021 5.64552 75.1538 5.89264 75.1546 6.14207C75.1542 6.38762 75.2021 6.63086 75.2958 6.85787C75.3894 7.08488 75.5268 7.29121 75.7001 7.46512C75.8735 7.63903 76.0794 7.77712 76.3061 7.87144C76.5328 7.96577 76.7759 8.01449 77.0215 8.01488C77.2674 8.02018 77.5118 7.97542 77.7399 7.88329C77.968 7.79116 78.175 7.65358 78.3482 7.47895C78.5215 7.30431 78.6574 7.09629 78.7477 6.86748C78.8381 6.63867 78.8809 6.39386 78.8736 6.14797C78.8807 5.90224 78.8389 5.65757 78.7507 5.4281C78.6626 5.19863 78.5297 4.98893 78.3599 4.81117C78.1901 4.63341 77.9867 4.49112 77.7615 4.39253C77.5363 4.29394 77.2938 4.24101 77.048 4.23682V4.23682Z" fill="black"></path>
    <path d="M106.93 4.23682C106.426 4.24458 105.946 4.45207 105.595 4.81372C105.243 5.17538 105.05 5.66165 105.057 6.16569C105.064 6.66163 105.267 7.13462 105.622 7.48118C105.977 7.82773 106.455 8.01961 106.951 8.01488C107.197 8.01583 107.44 7.96716 107.667 7.87173C107.893 7.77631 108.098 7.63612 108.269 7.45958C108.44 7.28304 108.574 7.07376 108.662 6.84433C108.75 6.6149 108.791 6.37004 108.782 6.12439C108.786 5.87852 108.741 5.63439 108.649 5.40611C108.558 5.17782 108.422 4.9699 108.25 4.79439C108.078 4.61887 107.872 4.47923 107.646 4.38353C107.419 4.28783 107.176 4.23796 106.93 4.23682V4.23682Z" fill="black"></path>
    <defs>
        <linearGradient id="paint0_linear_208_170" x1="19.2203" y1="5.30131" x2="5.20219" y2="18.897" gradientUnits="userSpaceOnUse">
            <stop stop-color="#E87F5C"></stop>
            <stop offset="0.14" stop-color="#D47772"></stop>
            <stop offset="0.73" stop-color="#8056CE"></stop>
            <stop offset="1" stop-color="#5F49F3"></stop>
        </linearGradient>
    </defs>
</svg>